<svg version="1.1" id="Layer_1" xmlns="http://www.w3.org/2000/svg" xmlns:xlink="http://www.w3.org/1999/xlink" x="0px" y="0px"
	 width="100%" viewBox="0 0 100 100" enable-background="new 0 0 100 100" xml:space="preserve">
<path fill="#010001" opacity="1.000000" stroke="none" 
	d="
M54.000000,101.000000 
	C36.000004,101.000000 18.500006,101.000000 1.000007,101.000000 
	C1.000005,67.666679 1.000005,34.333351 1.000002,1.000021 
	C34.333317,1.000014 67.666634,1.000014 100.999969,1.000007 
	C100.999977,34.333313 100.999977,67.666626 100.999985,100.999969 
	C85.500000,101.000000 70.000000,101.000000 54.000000,101.000000 
M71.812576,16.324293 
	C70.874344,15.605801 69.936111,14.887307 68.403946,13.897377 
	C67.638992,13.573981 66.874046,13.250586 65.743179,12.261341 
	C64.492989,12.230472 63.242794,12.199602 61.144974,12.029480 
	C59.432793,12.074118 57.720608,12.118754 55.139347,12.026982 
	C53.091202,12.073104 51.043060,12.119226 48.103989,12.026001 
	C45.402054,12.071958 42.700123,12.117914 39.165432,12.023871 
	C35.864414,13.093240 31.620760,13.236078 29.464083,15.430241 
	C25.329901,19.636276 22.380917,25.007263 18.309883,30.170649 
	C15.825852,33.769497 13.341823,37.368347 10.234200,41.240971 
	C8.799685,43.789326 7.365170,46.337685 5.235295,49.370998 
	C5.481143,52.904636 5.726991,56.438278 6.069253,60.661068 
	C7.366026,62.444553 8.662799,64.228043 10.207334,66.631836 
	C11.451991,68.328476 12.696649,70.025116 14.221527,72.298347 
	C14.808298,72.871010 15.395069,73.443680 16.215954,74.640701 
	C17.504635,76.356049 18.793316,78.071396 20.391888,80.324272 
	C21.277468,81.435913 22.163048,82.547562 23.349802,84.206749 
	C24.138147,84.879669 24.926495,85.552582 26.044559,86.829811 
	C27.649157,87.595490 29.253754,88.361168 31.415243,89.787033 
	C35.279072,89.828636 39.142902,89.870239 43.913155,90.080894 
	C47.598640,90.020241 51.284130,89.959587 55.799019,90.067696 
	C57.202812,90.019257 58.606606,89.970818 60.836216,90.075348 
	C62.233372,90.028267 63.630524,89.981194 65.825333,90.078972 
	C71.319633,90.228813 75.138702,87.391998 78.115379,83.105774 
	C78.115379,83.105774 78.071808,83.165688 78.576660,82.965942 
	C78.721306,82.651962 78.865952,82.337975 79.361717,81.492851 
	C80.217606,80.313522 81.073494,79.134193 82.335960,77.437660 
	C83.336212,76.003197 84.336456,74.568726 85.847374,72.879295 
	C86.294243,72.102882 86.741104,71.326477 87.756027,70.120499 
	C88.660698,68.811455 89.565369,67.502411 90.995712,65.824661 
	C91.839027,64.612823 92.682343,63.400986 94.102928,61.814827 
	C94.683907,59.536617 95.264885,57.258404 95.974937,54.149712 
	C95.023148,51.096157 94.071365,48.042606 92.887733,44.376247 
	C91.610809,42.930817 90.333893,41.485386 88.986641,39.353546 
	C87.674034,37.864372 86.361420,36.375202 84.852455,34.348537 
	C84.511528,33.899567 84.170609,33.450592 83.817947,32.413406 
	C83.380577,32.246662 82.943214,32.079914 82.781380,32.221081 
	C82.781380,32.221081 83.062904,31.918638 82.836594,31.340509 
	C81.927299,30.211342 81.018005,29.082174 79.843941,27.346769 
	C78.911911,26.191116 77.979874,25.035461 76.849220,23.345533 
	C76.512947,22.895922 76.176666,22.446310 75.801636,21.379864 
	C75.333679,21.258253 74.865715,21.136644 74.789429,21.331656 
	C74.886993,21.195038 74.984558,21.058422 74.840714,20.344496 
	C73.910034,19.193867 72.979347,18.043238 71.812576,16.324293 
z"/>
<path fill="#FEB326" opacity="1.000000" stroke="none" 
	d="
M39.998188,12.163872 
	C42.700123,12.117914 45.402054,12.071958 48.473053,12.419283 
	C46.553280,15.484670 44.264442,18.156775 41.603607,20.880466 
	C39.835655,21.233839 38.439705,21.535625 36.718571,21.975872 
	C33.183956,26.043985 29.974529,29.973637 26.453060,34.064194 
	C22.668243,36.114403 19.252111,38.121189 15.695273,39.836155 
	C14.239448,40.538097 12.479427,40.609142 10.857792,40.967201 
	C13.341823,37.368347 15.825852,33.769497 18.866737,30.223213 
	C22.008736,28.813515 24.998896,27.780289 27.095783,25.800808 
	C31.639011,21.511967 35.725136,16.738909 39.998188,12.163872 
z"/>
<path fill="#FEC028" opacity="1.000000" stroke="none" 
	d="
M39.581810,12.093871 
	C35.725136,16.738909 31.639011,21.511967 27.095783,25.800808 
	C24.998896,27.780289 22.008736,28.813515 19.181889,30.085342 
	C22.380917,25.007263 25.329901,19.636276 29.464083,15.430241 
	C31.620760,13.236078 35.864414,13.093240 39.581810,12.093871 
z"/>
<path fill="#FDA123" opacity="1.000000" stroke="none" 
	d="
M10.545996,41.104088 
	C12.479427,40.609142 14.239448,40.538097 15.695273,39.836155 
	C19.252111,38.121189 22.668243,36.114403 26.458000,34.421673 
	C24.106956,38.064526 21.438931,41.510799 18.587553,45.126526 
	C18.234684,45.759068 18.065166,46.222149 17.715578,46.811615 
	C17.535507,46.938004 17.107248,47.038952 16.720694,47.052002 
	C12.905819,48.032074 9.477499,48.999104 6.023949,49.695625 
	C5.976031,49.245430 5.953343,49.065735 5.930655,48.886040 
	C7.365170,46.337685 8.799685,43.789326 10.545996,41.104088 
z"/>
<path fill="#EF01AD" opacity="1.000000" stroke="none" 
	d="
M93.119583,44.989052 
	C94.071365,48.042606 95.023148,51.096157 95.543777,54.596359 
	C91.799667,56.024826 88.486725,57.006641 85.246017,57.609314 
	C85.531670,55.222553 85.745094,53.214939 86.048889,50.860016 
	C88.466049,48.671494 90.792816,46.830273 93.119583,44.989052 
z"/>
<path fill="#AE1774" opacity="1.000000" stroke="none" 
	d="
M54.969616,89.898926 
	C51.284130,89.959587 47.598640,90.020241 43.560402,89.680527 
	C45.155258,86.914635 47.102863,84.549095 49.506607,82.130219 
	C53.994984,82.106369 58.027225,82.135857 61.963638,82.488480 
	C59.568413,85.174049 57.269016,87.536491 54.969616,89.898926 
z"/>
<path fill="#CD1C64" opacity="1.000000" stroke="none" 
	d="
M49.050468,82.183563 
	C47.102863,84.549095 45.155258,86.914635 43.107193,89.596008 
	C39.142902,89.870239 35.279072,89.828636 31.425165,89.269684 
	C33.629185,86.563026 35.823280,84.373711 38.472271,82.131897 
	C42.301598,82.114128 45.676033,82.148849 49.050468,82.183563 
z"/>
<path fill="#881082" opacity="1.000000" stroke="none" 
	d="
M55.384315,89.983315 
	C57.269016,87.536491 59.568413,85.174049 62.291733,82.431351 
	C63.709393,81.735443 64.703133,81.419785 66.019745,80.963806 
	C67.883224,79.847771 69.423836,78.872055 71.213547,78.111450 
	C72.983444,78.226379 74.504242,78.126213 75.942841,78.364563 
	C74.905411,79.534050 74.019814,80.466469 72.982796,81.178276 
	C68.683563,84.129257 64.338577,87.013580 60.010399,89.922379 
	C58.606606,89.970818 57.202812,90.019257 55.384315,89.983315 
z"/>
<path fill="#FFA029" opacity="1.000000" stroke="none" 
	d="
M41.975609,20.828878 
	C44.264442,18.156775 46.553280,15.484670 48.918518,12.488956 
	C51.043060,12.119226 53.091202,12.073104 55.549728,12.443782 
	C54.294956,15.513915 52.629799,18.167250 50.518150,20.867306 
	C47.372974,20.885645 44.674290,20.857262 41.975609,20.828878 
z"/>
<path fill="#DD01A9" opacity="1.000000" stroke="none" 
	d="
M85.173782,57.988449 
	C88.486725,57.006641 91.799667,56.024826 95.479233,55.011604 
	C95.264885,57.258404 94.683907,59.536617 93.375702,61.982006 
	C89.418938,62.070324 86.189415,61.991459 82.996346,61.580574 
	C83.746460,60.161854 84.460121,59.075150 85.173782,57.988449 
z"/>
<path fill="#701085" opacity="1.000000" stroke="none" 
	d="
M60.423306,89.998863 
	C64.338577,87.013580 68.683563,84.129257 72.982796,81.178276 
	C74.019814,80.466469 74.905411,79.534050 76.312637,78.356842 
	C77.505371,77.988884 78.246132,77.967163 79.328232,77.952148 
	C80.123695,77.928574 80.577812,77.898277 81.256882,77.883560 
	C81.481842,77.899132 81.929382,77.954865 81.929382,77.954865 
	C81.073494,79.134193 80.217606,80.313522 78.987457,81.910316 
	C78.432732,82.607086 78.252274,82.886383 78.071808,83.165688 
	C78.071808,83.165688 78.115379,83.105774 77.731094,83.085556 
	C73.240433,85.354927 69.134056,87.644524 65.027679,89.934113 
	C63.630524,89.981194 62.233372,90.028267 60.423306,89.998863 
z"/>
<path fill="#FB6126" opacity="1.000000" stroke="none" 
	d="
M9.959572,66.011528 
	C8.662799,64.228043 7.366026,62.444553 6.340214,60.449970 
	C10.792286,61.633984 12.614287,58.430016 14.917698,56.352127 
	C15.682967,58.084682 16.372490,59.481991 16.984886,61.229744 
	C14.591698,63.057301 12.275635,64.534416 9.959572,66.011528 
z"/>
<path fill="#FE7922" opacity="1.000000" stroke="none" 
	d="
M14.841951,56.016880 
	C12.614287,58.430016 10.792286,61.633984 6.292006,60.105392 
	C5.726991,56.438278 5.481143,52.904636 5.582975,49.128517 
	C5.953343,49.065735 5.976031,49.245430 6.008907,50.109932 
	C6.514763,52.423805 7.010431,54.052864 7.506098,55.681927 
	C8.958866,55.046829 10.437959,54.464622 11.855637,53.759022 
	C12.892648,53.242889 13.848915,52.564526 14.898153,52.361847 
	C14.917406,53.849106 14.879679,54.932995 14.841951,56.016880 
z"/>
<path fill="#FC0494" opacity="1.000000" stroke="none" 
	d="
M93.003662,44.682652 
	C90.792816,46.830273 88.466049,48.671494 85.776833,50.667809 
	C84.631599,49.541805 83.848816,48.260704 83.098846,46.622215 
	C85.106773,44.189865 87.081871,42.114910 89.056976,40.039955 
	C90.333893,41.485386 91.610809,42.930817 93.003662,44.682652 
z"/>
<path fill="#F94331" opacity="1.000000" stroke="none" 
	d="
M15.981839,74.016342 
	C15.395069,73.443680 14.808298,72.871010 14.132775,71.683952 
	C16.266165,69.059013 18.488304,67.048462 20.840256,65.359558 
	C21.687817,67.050308 22.405565,68.419418 23.031143,70.148819 
	C20.619928,71.678185 18.300884,72.847267 15.981839,74.016342 
z"/>
<path fill="#FF862B" opacity="1.000000" stroke="none" 
	d="
M50.964645,20.820583 
	C52.629799,18.167250 54.294956,15.513915 55.984268,12.511987 
	C57.720608,12.118754 59.432793,12.074118 61.498886,12.432380 
	C60.223717,15.498899 58.594631,18.162519 56.539017,20.871960 
	C54.396534,20.885380 52.680592,20.852982 50.964645,20.820583 
z"/>
<path fill="#DF2159" opacity="1.000000" stroke="none" 
	d="
M38.017380,82.184387 
	C35.823280,84.373711 33.629185,86.563026 31.146719,88.939598 
	C29.253754,88.361168 27.649157,87.595490 26.192371,86.352417 
	C28.600838,84.231194 30.861492,82.587357 33.470837,80.942368 
	C34.272003,81.002266 34.724483,81.063324 35.370945,81.372620 
	C36.382412,81.808701 37.199894,81.996544 38.017380,82.184387 
z"/>
<path fill="#F23538" opacity="1.000000" stroke="none" 
	d="
M16.098896,74.328522 
	C18.300884,72.847267 20.619928,71.678185 23.327501,70.313385 
	C25.383451,72.084526 27.050873,74.051376 28.343712,76.015335 
	C25.340090,77.270538 22.711044,78.528641 20.081997,79.786743 
	C18.793316,78.071396 17.504635,76.356049 16.098896,74.328522 
z"/>
<path fill="#FD0779" opacity="1.000000" stroke="none" 
	d="
M89.021805,39.696751 
	C87.081871,42.114910 85.106773,44.189865 82.811699,46.478699 
	C81.974472,45.787254 81.457214,44.881931 80.855453,43.784176 
	C80.617126,43.345081 80.405411,43.167351 80.047897,43.024727 
	C79.959991,42.990902 80.005630,42.808136 80.047447,42.463554 
	C81.742447,39.707996 83.395630,37.297016 85.048805,34.886032 
	C86.361420,36.375202 87.674034,37.864372 89.021805,39.696751 
z"/>
<path fill="#F74F2B" opacity="1.000000" stroke="none" 
	d="
M20.710445,65.037910 
	C18.488304,67.048462 16.266165,69.059013 13.992664,71.395660 
	C12.696649,70.025116 11.451991,68.328476 10.083452,66.321686 
	C12.275635,64.534416 14.591698,63.057301 17.276781,61.377640 
	C18.667349,62.462696 19.688896,63.750301 20.710445,65.037910 
z"/>
<path fill="#FF1B4C" opacity="1.000000" stroke="none" 
	d="
M77.047844,23.879807 
	C77.979874,25.035461 78.911911,26.191116 79.675720,27.825607 
	C77.996414,30.884438 76.485336,33.464428 74.673676,35.889004 
	C73.223320,33.841652 72.073540,31.949717 71.211792,29.885399 
	C73.349159,27.768610 75.198502,25.824207 77.047844,23.879807 
z"/>
<path fill="#960984" opacity="1.000000" stroke="none" 
	d="
M82.132675,77.696259 
	C81.929382,77.954865 81.481842,77.899132 81.175522,77.650642 
	C80.241760,77.583244 79.614319,77.764336 78.986885,77.945435 
	C78.246132,77.967163 77.505371,77.988884 76.394829,78.018326 
	C74.504242,78.126213 72.983444,78.226379 71.391617,77.826950 
	C72.190117,76.192139 73.059639,75.056923 74.031464,74.219704 
	C75.389626,74.527855 76.668060,74.693733 77.896568,74.515488 
	C80.390907,74.153572 82.858238,73.605560 85.336708,73.134262 
	C84.336456,74.568726 83.336212,76.003197 82.132675,77.696259 
z"/>
<path fill="#561288" opacity="1.000000" stroke="none" 
	d="
M65.426506,90.006546 
	C69.134056,87.644524 73.240433,85.354927 77.759285,83.109589 
	C75.138702,87.391998 71.319633,90.228813 65.426506,90.006546 
z"/>
<path fill="#FC0C64" opacity="1.000000" stroke="none" 
	d="
M84.950630,34.617287 
	C83.395630,37.297016 81.742447,39.707996 79.785706,42.291702 
	C78.621223,41.039948 77.760292,39.615467 76.997284,37.827911 
	C79.084442,35.616100 81.073669,33.767368 83.062904,31.918638 
	C83.062904,31.918638 82.781380,32.221081 82.917450,32.410084 
	C83.312233,32.733265 83.570953,32.867443 83.829681,33.001621 
	C84.170609,33.450592 84.511528,33.899567 84.950630,34.617287 
z"/>
<path fill="#FE1358" opacity="1.000000" stroke="none" 
	d="
M82.949753,31.629574 
	C81.073669,33.767368 79.084442,35.616100 76.734566,37.691872 
	C75.907372,37.294079 75.440811,36.669247 74.974258,36.044418 
	C76.485336,33.464428 77.996414,30.884438 79.808105,28.128727 
	C81.018005,29.082174 81.927299,30.211342 82.949753,31.629574 
z"/>
<path fill="#A60689" opacity="1.000000" stroke="none" 
	d="
M85.592041,73.006775 
	C82.858238,73.605560 80.390907,74.153572 77.896568,74.515488 
	C76.668060,74.693733 75.389626,74.527855 74.172775,73.925583 
	C75.120369,72.189842 76.028976,71.046219 77.244759,70.138924 
	C80.695480,70.195549 83.839027,70.015839 87.057617,70.007797 
	C87.132645,70.179474 87.187973,70.550072 87.187973,70.550072 
	C86.741104,71.326477 86.294243,72.102882 85.592041,73.006775 
z"/>
<path fill="#EA2850" opacity="1.000000" stroke="none" 
	d="
M33.122147,80.943527 
	C30.861492,82.587357 28.600838,84.231194 26.027512,86.050262 
	C24.926495,85.552582 24.138147,84.879669 23.307323,83.639076 
	C25.192869,81.341660 27.120895,79.611916 29.347881,78.021317 
	C30.805277,79.088150 31.963711,80.015831 33.122147,80.943527 
z"/>
<path fill="#F02B45" opacity="1.000000" stroke="none" 
	d="
M29.048920,77.882164 
	C27.120895,79.611916 25.192869,81.341660 23.156736,83.365303 
	C22.163048,82.547562 21.277468,81.435913 20.236942,80.055511 
	C22.711044,78.528641 25.340090,77.270538 28.460377,76.311569 
	C28.984055,77.034523 29.016487,77.458344 29.048920,77.882164 
z"/>
<path fill="#FF7130" opacity="1.000000" stroke="none" 
	d="
M56.965549,20.826139 
	C58.594631,18.162519 60.223717,15.498899 61.922699,12.502007 
	C63.242794,12.199602 64.492989,12.230472 65.737564,12.881957 
	C64.470139,15.941794 63.208324,18.381016 61.533493,20.862720 
	C59.735497,20.878847 58.350525,20.852493 56.965549,20.826139 
z"/>
<path fill="#FA2542" opacity="1.000000" stroke="none" 
	d="
M76.948532,23.612669 
	C75.198502,25.824207 73.349159,27.768610 70.934738,29.784580 
	C69.727097,28.916695 69.084541,27.977243 68.752960,26.921783 
	C71.069992,24.844450 73.076057,22.883125 75.082130,20.921803 
	C74.984558,21.058422 74.886993,21.195038 74.910156,21.487228 
	C75.300720,21.760769 75.570557,21.878735 75.840393,21.996698 
	C76.176666,22.446310 76.512947,22.895922 76.948532,23.612669 
z"/>
<path fill="#C40497" opacity="1.000000" stroke="none" 
	d="
M90.470039,66.193367 
	C89.565369,67.502411 88.660698,68.811455 87.472000,70.335281 
	C87.187973,70.550072 87.132645,70.179474 86.920258,69.696777 
	C83.777649,69.135979 80.847435,69.057861 77.971100,68.636391 
	C79.333580,66.494118 80.642159,64.695206 82.053665,63.272552 
	C84.927734,64.497002 87.698883,65.345184 90.470039,66.193367 
z"/>
<path fill="#FF4239" opacity="1.000000" stroke="none" 
	d="
M68.997879,14.168814 
	C69.936111,14.887307 70.874344,15.605801 71.855469,16.954933 
	C69.918831,19.728813 67.939301,21.872055 65.724968,23.936140 
	C65.194008,23.662586 65.022903,23.389763 64.989029,22.769470 
	C64.996567,22.320950 64.991928,22.141468 65.139481,21.660633 
	C66.527084,18.962461 67.762482,16.565638 68.997879,14.168814 
z"/>
<path fill="#FF5834" opacity="1.000000" stroke="none" 
	d="
M68.700912,14.033095 
	C67.762482,16.565638 66.527084,18.962461 64.885284,21.674496 
	C64.309433,22.003494 64.139984,22.017282 64.001350,22.031872 
	C64.032150,22.032669 64.014923,22.091835 63.830120,21.840050 
	C63.079048,21.332254 62.512779,21.076244 61.946510,20.820236 
	C63.208324,18.381016 64.470139,15.941794 65.920517,13.214882 
	C66.874046,13.250586 67.638992,13.573981 68.700912,14.033095 
z"/>
<path fill="#FE2F39" opacity="1.000000" stroke="none" 
	d="
M65.959770,24.015297 
	C67.939301,21.872055 69.918831,19.728813 71.973511,17.239090 
	C72.979347,18.043238 73.910034,19.193867 74.961426,20.633148 
	C73.076057,22.883125 71.069992,24.844450 68.546669,26.662006 
	C67.339531,25.683926 66.649651,24.849611 65.959770,24.015297 
z"/>
<path fill="#D101A3" opacity="1.000000" stroke="none" 
	d="
M90.732880,66.009018 
	C87.698883,65.345184 84.927734,64.497002 82.134933,63.033142 
	C82.395493,62.249176 82.677689,62.080887 82.959885,61.912598 
	C86.189415,61.991459 89.418938,62.070324 93.087059,62.169167 
	C92.682343,63.400986 91.839027,64.612823 90.732880,66.009018 
z"/>
<path fill="#561288" opacity="1.000000" stroke="none" 
	d="
M78.324234,83.065811 
	C78.252274,82.886383 78.432732,82.607086 78.811890,82.175888 
	C78.865952,82.337975 78.721306,82.651962 78.324234,83.065811 
z"/>
<path fill="#FE1358" opacity="1.000000" stroke="none" 
	d="
M83.823814,32.707512 
	C83.570953,32.867443 83.312233,32.733265 82.779678,32.256126 
	C82.943214,32.079914 83.380577,32.246662 83.823814,32.707512 
z"/>
<path fill="#FE2F39" opacity="1.000000" stroke="none" 
	d="
M75.821014,21.688282 
	C75.570557,21.878735 75.300720,21.760769 74.714325,21.328918 
	C74.865715,21.136644 75.333679,21.258253 75.821014,21.688282 
z"/>
<path fill="#040001" opacity="1.000000" stroke="none" 
	d="
M82.996346,61.580578 
	C82.677689,62.080887 82.395493,62.249176 82.032013,62.656876 
	C80.642159,64.695206 79.333580,66.494118 77.739433,68.703613 
	C77.165077,69.300568 76.992989,69.563362 76.937592,69.902596 
	C76.028976,71.046219 75.120369,72.189842 74.070457,73.627594 
	C73.059639,75.056923 72.190117,76.192139 71.142525,77.611847 
	C69.423836,78.872055 67.883224,79.847771 65.574799,80.934235 
	C54.930313,81.071442 45.053638,81.097908 35.176960,81.124374 
	C34.724483,81.063324 34.272003,81.002266 33.470833,80.942368 
	C31.963711,80.015831 30.805277,79.088150 29.347881,78.021317 
	C29.016487,77.458344 28.984055,77.034523 28.834957,76.314468 
	C27.050873,74.051376 25.383451,72.084526 23.419672,69.953094 
	C22.405565,68.419418 21.687817,67.050308 20.840256,65.359558 
	C19.688896,63.750301 18.667349,62.462696 17.353907,61.027195 
	C16.372490,59.481991 15.682967,58.084682 14.917698,56.352127 
	C14.879679,54.932995 14.917406,53.849106 15.086271,52.073322 
	C15.847357,49.933933 16.477303,48.486443 17.107250,47.038952 
	C17.107248,47.038952 17.535507,46.938004 17.989540,46.742550 
	C18.552683,46.017086 18.661793,45.487080 18.770905,44.957069 
	C21.438931,41.510799 24.106956,38.064526 26.770042,34.260773 
	C29.974529,29.973637 33.183956,26.043985 37.178909,22.046076 
	C46.647934,22.015825 55.331429,22.053831 64.014923,22.091835 
	C64.014923,22.091835 64.032150,22.032669 64.070938,22.281536 
	C64.398758,22.699774 64.687798,22.869143 64.976837,23.038509 
	C65.022903,23.389763 65.194008,23.662586 65.724968,23.936138 
	C66.649651,24.849611 67.339531,25.683926 68.235703,26.778015 
	C69.084541,27.977243 69.727097,28.916695 70.646713,29.956964 
	C72.073540,31.949717 73.223320,33.841652 74.673676,35.889000 
	C75.440811,36.669247 75.907372,37.294079 76.636642,38.054951 
	C77.760292,39.615467 78.621223,41.039948 79.743896,42.636284 
	C80.005630,42.808136 79.959991,42.990902 80.067741,43.254082 
	C80.347572,43.808025 80.602394,43.961140 80.939957,43.976604 
	C81.457214,44.881931 81.974472,45.787254 82.778877,46.836094 
	C83.848816,48.260704 84.631599,49.541805 85.686447,51.015114 
	C85.745094,53.214939 85.531670,55.222553 85.246017,57.609310 
	C84.460121,59.075150 83.746460,60.161854 82.996346,61.580578 
M52.941196,50.073242 
	C52.941196,50.073242 52.907742,50.091839 52.967518,50.816711 
	C54.349293,53.437485 55.731071,56.058262 57.183186,58.922318 
	C57.183186,58.922318 57.413437,59.027767 57.254639,59.535275 
	C57.167385,59.689571 57.080128,59.843868 56.487782,60.029282 
	C56.325581,60.075592 56.163380,60.121906 55.207661,60.031055 
	C54.137970,60.077217 53.068279,60.123379 51.196083,60.032303 
	C45.161449,60.179379 41.469952,63.385250 39.581833,70.372902 
	C42.128284,70.260063 44.573723,70.151695 47.802395,70.252594 
	C48.875683,70.178322 49.948967,70.104050 51.864616,70.238045 
	C53.591476,70.164848 55.318336,70.091644 57.882767,70.220093 
	C59.605083,70.148964 61.327404,70.077827 63.845272,70.206238 
	C71.048492,70.052322 73.777481,66.982773 71.044853,61.305107 
	C70.351540,60.212772 69.658226,59.120441 69.080002,57.293404 
	C67.762581,54.829483 66.445168,52.365559 65.054451,49.242405 
	C64.431328,48.150242 63.808205,47.058075 63.005569,45.259632 
	C61.718601,42.818130 60.431637,40.376629 59.049080,37.227814 
	C58.050262,35.450424 57.051449,33.673035 55.988480,31.171318 
	C55.348663,30.728546 54.708843,30.285776 53.818226,29.279621 
	C52.546417,28.909695 51.274612,28.539770 49.223991,28.032558 
	C41.996063,28.117573 40.508980,33.987785 37.864979,39.639973 
	C36.293404,42.422985 34.721828,45.205994 32.813435,48.604340 
	C31.597486,50.746292 30.381540,52.888245 28.816814,55.695492 
	C26.771315,58.390293 25.897688,61.109932 28.928621,64.503586 
	C29.798811,66.095642 30.669001,67.687698 32.136669,70.372871 
	C36.498695,63.608582 40.223476,57.832481 44.052677,52.053635 
	C44.052677,52.053635 44.053551,51.949177 44.469143,51.821152 
	C44.648819,51.583904 44.752228,51.317097 45.347572,50.632458 
	C46.953960,48.752804 48.560345,46.873146 50.107079,45.580212 
	C50.580254,46.430355 51.053429,47.280495 51.797825,48.679203 
	C52.168308,49.136890 52.538795,49.594578 52.941196,50.073242 
z"/>
<path fill="#F81511" opacity="1.000000" stroke="none" 
	d="
M63.830120,21.840050 
	C55.331429,22.053831 46.647934,22.015825 37.504097,21.907616 
	C38.439705,21.535625 39.835655,21.233839 41.603607,20.880466 
	C44.674290,20.857262 47.372974,20.885645 50.518150,20.867306 
	C52.680592,20.852982 54.396534,20.885380 56.539017,20.871960 
	C58.350525,20.852493 59.735497,20.878847 61.533493,20.862720 
	C62.512779,21.076244 63.079048,21.332254 63.830120,21.840050 
z"/>
<path fill="#FD8D22" opacity="1.000000" stroke="none" 
	d="
M16.720695,47.052002 
	C16.477303,48.486443 15.847357,49.933933 15.029291,51.669952 
	C13.848915,52.564526 12.892648,53.242889 11.855637,53.759022 
	C10.437959,54.464622 8.958866,55.046829 7.506098,55.681927 
	C7.010431,54.052864 6.514763,52.423805 6.034138,50.380440 
	C9.477499,48.999104 12.905819,48.032074 16.720695,47.052002 
z"/>
<path fill="#FD8D22" opacity="1.000000" stroke="none" 
	d="
M18.587551,45.126526 
	C18.661793,45.487080 18.552683,46.017086 18.169609,46.616165 
	C18.065166,46.222149 18.234684,45.759068 18.587551,45.126526 
z"/>
<path fill="#FCBC36" opacity="1.000000" stroke="none" 
	d="
M35.370945,81.372620 
	C45.053638,81.097908 54.930313,81.071442 65.251938,81.074554 
	C64.703133,81.419785 63.709393,81.735443 62.387558,82.108223 
	C58.027225,82.135857 53.994984,82.106369 49.506607,82.130219 
	C45.676033,82.148849 42.301598,82.114128 38.472267,82.131897 
	C37.199894,81.996544 36.382412,81.808701 35.370945,81.372620 
z"/>
<path fill="#881082" opacity="1.000000" stroke="none" 
	d="
M79.328232,77.952148 
	C79.614319,77.764336 80.241760,77.583244 80.950562,77.635071 
	C80.577812,77.898277 80.123695,77.928574 79.328232,77.952148 
z"/>
<path fill="#FC0C64" opacity="1.000000" stroke="none" 
	d="
M80.855453,43.784176 
	C80.602394,43.961140 80.347572,43.808025 80.155647,43.287907 
	C80.405411,43.167351 80.617126,43.345081 80.855453,43.784176 
z"/>
<path fill="#B70492" opacity="1.000000" stroke="none" 
	d="
M77.244759,70.138924 
	C76.992989,69.563362 77.165077,69.300568 77.685547,69.046967 
	C80.847435,69.057861 83.777649,69.135979 86.845230,69.525108 
	C83.839027,70.015839 80.695480,70.195549 77.244759,70.138924 
z"/>
<path fill="#FE2F39" opacity="1.000000" stroke="none" 
	d="
M64.989029,22.769470 
	C64.687798,22.869143 64.398758,22.699774 64.040131,22.280739 
	C64.139984,22.017282 64.309433,22.003494 64.733078,21.975845 
	C64.991928,22.141468 64.996567,22.320950 64.989029,22.769470 
z"/>
<path fill="#FC4B39" opacity="1.000000" stroke="none" 
	d="
M50.166725,44.993484 
	C48.560345,46.873146 46.953960,48.752804 44.896347,50.939743 
	C44.241447,51.440254 44.110924,51.674305 44.053551,51.949177 
	C44.053551,51.949177 44.052677,52.053635 43.682804,52.171257 
	C38.422874,56.161350 33.532818,60.033817 28.642761,63.906288 
	C25.897688,61.109932 26.771315,58.390293 29.361397,55.352604 
	C31.390030,54.402477 33.166416,54.130375 34.310013,53.132832 
	C41.015400,47.283844 47.606167,41.301319 54.141895,35.262424 
	C55.044857,34.428104 55.428547,33.031784 56.052635,31.895645 
	C57.051449,33.673035 58.050262,35.450424 58.801254,37.752129 
	C55.757866,40.515457 52.962296,42.754471 50.166725,44.993484 
z"/>
<path fill="#FC1D5F" opacity="1.000000" stroke="none" 
	d="
M65.127747,49.901638 
	C66.445168,52.365559 67.762581,54.829483 68.723862,57.528439 
	C67.162285,57.962242 65.373650,57.727093 64.848923,58.432339 
	C62.072464,62.164001 59.613937,66.132225 57.045197,70.018448 
	C55.318336,70.091644 53.591476,70.164848 51.505913,69.792007 
	C52.765198,66.286728 54.383190,63.227478 56.001183,60.168224 
	C56.163380,60.121906 56.325581,60.075592 56.914639,59.968811 
	C57.425350,59.825722 57.585258,59.736362 57.578648,59.661762 
	C57.559635,59.447231 57.473309,59.238674 57.413437,59.027767 
	C57.413437,59.027767 57.183186,58.922318 57.169930,58.422729 
	C56.762493,52.217289 60.798275,50.913540 65.127747,49.901638 
z"/>
<path fill="#FF5A37" opacity="1.000000" stroke="none" 
	d="
M56.020557,31.533482 
	C55.428547,33.031784 55.044857,34.428104 54.141895,35.262424 
	C47.606167,41.301319 41.015400,47.283844 34.310013,53.132832 
	C33.166416,54.130375 31.390030,54.402477 29.535786,55.019958 
	C30.381540,52.888245 31.597486,50.746292 33.333199,48.276939 
	C40.591652,41.914028 47.330341,35.878517 54.069027,29.843004 
	C54.708843,30.285776 55.348663,30.728546 56.020557,31.533482 
z"/>
<path fill="#FF6934" opacity="1.000000" stroke="none" 
	d="
M53.943626,29.561314 
	C47.330341,35.878517 40.591652,41.914028 33.501606,47.969269 
	C34.721828,45.205994 36.293404,42.422985 38.367744,39.297340 
	C42.581272,35.359749 46.292038,31.764795 50.002804,28.169842 
	C51.274612,28.539770 52.546417,28.909695 53.943626,29.561314 
z"/>
<path fill="#F23738" opacity="1.000000" stroke="none" 
	d="
M28.785690,64.204941 
	C33.532818,60.033817 38.422874,56.161350 43.630592,52.172634 
	C40.223476,57.832481 36.498695,63.608582 32.136669,70.372871 
	C30.669001,67.687698 29.798811,66.095642 28.785690,64.204941 
z"/>
<path fill="#FF3644" opacity="1.000000" stroke="none" 
	d="
M50.136902,45.286850 
	C52.962296,42.754471 55.757866,40.515457 58.849052,38.105785 
	C60.431637,40.376629 61.718601,42.818130 62.726177,45.651321 
	C60.836266,47.014420 59.301399,48.159473 57.592106,48.904182 
	C56.134796,49.539108 54.476902,49.713642 52.907742,50.091839 
	C52.907742,50.091839 52.941196,50.073242 52.897980,49.739491 
	C52.412041,48.980705 51.969322,48.555672 51.526604,48.130634 
	C51.053429,47.280495 50.580254,46.430355 50.136902,45.286850 
z"/>
<path fill="#F9126F" opacity="1.000000" stroke="none" 
	d="
M57.463982,70.119270 
	C59.613937,66.132225 62.072464,62.164001 64.848923,58.432339 
	C65.373650,57.727093 67.162285,57.962242 68.666321,57.895790 
	C69.658226,59.120441 70.351540,60.212772 70.739197,61.658913 
	C67.972260,64.677383 65.510994,67.342041 63.049721,70.006699 
	C61.327404,70.077827 59.605083,70.148964 57.463982,70.119270 
z"/>
<path fill="#FE2751" opacity="1.000000" stroke="none" 
	d="
M47.019169,70.043335 
	C44.573723,70.151695 42.128284,70.260063 39.581833,70.372902 
	C41.469952,63.385250 45.161449,60.179379 51.573822,60.453232 
	C50.307434,63.930557 48.663303,66.986946 47.019169,70.043335 
z"/>
<path fill="#E31D3C" opacity="1.000000" stroke="none" 
	d="
M52.937630,50.454277 
	C54.476902,49.713642 56.134796,49.539108 57.592106,48.904182 
	C59.301399,48.159473 60.836266,47.014420 62.815933,46.004459 
	C63.808205,47.058075 64.431328,48.150242 65.091095,49.572021 
	C60.798275,50.913540 56.762493,52.217289 57.134758,58.301090 
	C55.731071,56.058262 54.349293,53.437485 52.937630,50.454277 
z"/>
<path fill="#FF7731" opacity="1.000000" stroke="none" 
	d="
M49.613396,28.101200 
	C46.292038,31.764795 42.581272,35.359749 38.520824,38.977688 
	C40.508980,33.987785 41.996063,28.117573 49.613396,28.101200 
z"/>
<path fill="#F40E7B" opacity="1.000000" stroke="none" 
	d="
M63.447495,70.106468 
	C65.510994,67.342041 67.972260,64.677383 70.806412,61.984856 
	C73.777481,66.982773 71.048492,70.052322 63.447495,70.106468 
z"/>
<path fill="#FD1E5A" opacity="1.000000" stroke="none" 
	d="
M47.410782,70.147964 
	C48.663303,66.986946 50.307434,63.930557 51.975075,60.521851 
	C53.068279,60.123379 54.137970,60.077217 55.604424,60.099640 
	C54.383190,63.227478 52.765198,66.286728 51.084732,69.687881 
	C49.948967,70.104050 48.875683,70.178322 47.410782,70.147964 
z"/>
<path fill="#E31D3C" opacity="1.000000" stroke="none" 
	d="
M51.662216,48.404919 
	C51.969322,48.555672 52.412041,48.980705 52.882023,49.729004 
	C52.538795,49.594578 52.168308,49.136890 51.662216,48.404919 
z"/>
<path fill="#F23738" opacity="1.000000" stroke="none" 
	d="
M44.261345,51.885162 
	C44.110924,51.674305 44.241447,51.440254 44.612247,51.133881 
	C44.752228,51.317097 44.648819,51.583904 44.261345,51.885162 
z"/>
<path fill="#E31D3C" opacity="1.000000" stroke="none" 
	d="
M57.334038,59.281521 
	C57.473309,59.238674 57.559635,59.447231 57.578648,59.661762 
	C57.585258,59.736362 57.425350,59.825722 57.167183,59.953247 
	C57.080128,59.843868 57.167385,59.689571 57.334038,59.281521 
z"/>
</svg>